<?xml version="1.0" encoding="utf-8"?>
<!-- Generator: Adobe Illustrator 24.0.3, SVG Export Plug-In . SVG Version: 6.00 Build 0)  -->
<svg version="1.1" id="Layer_1" xmlns="http://www.w3.org/2000/svg" xmlns:xlink="http://www.w3.org/1999/xlink" x="0px" y="0px"
	 viewBox="0 0 574 574" style="enable-background:new 0 0 574 574;" xml:space="preserve">
<style type="text/css">
	.st0{fill:#707070;}
</style>
<g>
	<path class="st0" d="M461.6,61.4h-55.5V40.1c0-6.2-5-11.2-11.2-11.2s-11.2,5-11.2,11.2v21.2H194.1V40.1c0-6.2-5-11.2-11.2-11.2
		s-11.2,5-11.2,11.2v21.2h-59.2c-33.7,0-61.1,27.4-61.1,61.1v187.1c0,6.2,5,11.2,11.2,11.2s11.2-5,11.2-11.2v-73.6h426.5v248.2
		c0,21.3-17.3,38.6-38.7,38.7H112.4c-21.3,0-38.6-17.3-38.7-38.7v-64.9c0-6.2-5-11.2-11.2-11.2s-11.2,5-11.2,11.2v64.9
		c0,33.7,27.4,61.1,61.1,61.1h349.2c33.7,0,61.1-27.4,61.1-61.1V122.5C522.7,88.7,495.3,61.4,461.6,61.4z M73.7,213.5v-91
		c0-21.3,17.3-38.6,38.7-38.7h59.2v30.5c-16.9,5.5-27.3,22.5-24.5,40.1s17.9,30.5,35.7,30.5s32.9-12.9,35.7-30.5
		s-7.6-34.5-24.5-40.1V83.8h189.6v30.5c-16.9,5.5-27.3,22.5-24.5,40.1s17.9,30.5,35.7,30.5c17.8,0,32.9-12.9,35.7-30.5
		c2.8-17.6-7.6-34.5-24.5-40.1V83.8h55.5c21.3,0,38.6,17.3,38.7,38.7v91H73.7z M182.9,134.9c7.6,0,13.7,6.1,13.7,13.7
		c0,7.6-6.1,13.7-13.7,13.7c-7.6,0-13.7-6.1-13.7-13.7C169.2,141.1,175.3,134.9,182.9,134.9z M394.9,134.9c7.6,0,13.7,6.1,13.7,13.7
		c0,7.6-6.1,13.7-13.7,13.7s-13.7-6.1-13.7-13.7C381.2,141.1,387.3,134.9,394.9,134.9z"/>
	<path class="st0" d="M199.9,415.1c-4.4,4.4-4.4,11.5,0,15.9s11.5,4.4,15.9,0l58.6-58.6c4.4-4.4,4.4-11.5,0-15.9l-58.6-58.6
		c-4.4-4.4-11.5-4.4-15.9,0s-4.4,11.5,0,15.9l39.5,39.5H85c-6.2,0-11.2,5-11.2,11.2s5,11.2,11.2,11.2h154.4L199.9,415.1z"/>
</g>
</svg>
