<?xml version="1.0" encoding="utf-8"?>
<!-- Generator: Adobe Illustrator 24.0.3, SVG Export Plug-In . SVG Version: 6.00 Build 0)  -->
<svg version="1.1" id="Layer_1" xmlns="http://www.w3.org/2000/svg" xmlns:xlink="http://www.w3.org/1999/xlink" x="0px" y="0px"
	 viewBox="0 0 574 574" style="enable-background:new 0 0 574 574;" xml:space="preserve">
<style type="text/css">
	.st0{fill:#707070;}
</style>
<g>
	<path class="st0" d="M51.3,122.5v361.7c0,33.7,27.4,61.1,61.1,61.1h349.2c33.7,0,61.1-27.4,61.1-61.1v-64.9c0-6.2-5-11.2-11.2-11.2
		s-11.2,5-11.2,11.2v64.9c0,21.3-17.3,38.6-38.7,38.7H112.4c-21.3,0-38.6-17.3-38.7-38.7V235.9h426.5v73.6c0,6.2,5,11.2,11.2,11.2
		s11.2-5,11.2-11.2V122.5c0-33.7-27.4-61.1-61.1-61.1h-59.2V40.1c0-6.2-5-11.2-11.2-11.2s-11.2,5-11.2,11.2v21.2H190.4V40.1
		c0-6.2-5-11.2-11.2-11.2c-6.2,0-11.2,5-11.2,11.2v21.2h-55.5C78.7,61.4,51.3,88.7,51.3,122.5z M73.7,213.5v-91
		c0-21.3,17.3-38.6,38.7-38.7h55.5v30.5c-16.9,5.5-27.3,22.5-24.5,40.1c2.8,17.6,17.9,30.5,35.7,30.5s32.9-12.9,35.7-30.5
		c2.8-17.6-7.6-34.5-24.5-40.1V83.8h189.6v30.5c-16.9,5.5-27.3,22.5-24.5,40.1c2.8,17.6,17.9,30.5,35.7,30.5
		c17.8,0,32.9-12.9,35.7-30.5c2.8-17.6-7.6-34.5-24.5-40.1V83.8h59.2c21.3,0,38.6,17.3,38.7,38.7v91H73.7z M404.9,148.6
		c0,7.6-6.1,13.7-13.7,13.7c-7.6,0-13.7-6.1-13.7-13.7c0-7.6,6.1-13.7,13.7-13.7C398.7,134.9,404.8,141.1,404.9,148.6z M192.8,148.6
		c0,7.6-6.1,13.7-13.7,13.7c-7.6,0-13.7-6.1-13.7-13.7c0-7.6,6.1-13.7,13.7-13.7C186.7,134.9,192.8,141.1,192.8,148.6z"/>
	<path class="st0" d="M461.9,353.2H307.6c-6.2,0-11.2,5-11.2,11.2c0,6.2,5,11.2,11.2,11.2h154.4l-39.5,39.5
		c-4.4,4.4-4.4,11.5,0,15.9c4.4,4.4,11.5,4.4,15.9,0l58.6-58.6c4.4-4.4,4.4-11.5,0-15.9l-58.6-58.6c-4.4-4.4-11.5-4.4-15.9,0
		c-4.4,4.4-4.4,11.5,0,15.9L461.9,353.2z"/>
</g>
</svg>
