<svg xmlns="http://www.w3.org/2000/svg" width="30" height="30.006" viewBox="0 0 30 30.006"><defs><style>.a{fill:#b4b4b4;}</style></defs><path class="a" d="M56.137,62.015c-1.307,0-3.144-.473-5.894-2.009a38.322,38.322,0,0,1-9.257-6.924,35.129,35.129,0,0,1-6.952-9.254c-2.468-4.488-2.047-6.84-1.577-7.845a6.262,6.262,0,0,1,2.455-2.634A11.808,11.808,0,0,1,36.83,32.33l.185-.081a1.793,1.793,0,0,1,1.47-.134,4.306,4.306,0,0,1,1.4,1.072,23.221,23.221,0,0,1,3.494,5.186,5.167,5.167,0,0,1,.685,2.124,3.356,3.356,0,0,1-.854,2c-.088.12-.175.234-.259.346-.51.67-.622.863-.548,1.209a12.706,12.706,0,0,0,3.094,4.589,12.179,12.179,0,0,0,4.536,3.019c.36.077.558-.04,1.249-.567.1-.076.2-.154.307-.232a3.375,3.375,0,0,1,2.027-.907h0a4.853,4.853,0,0,1,2.134.749,25.586,25.586,0,0,1,5.167,3.468,4.305,4.305,0,0,1,1.075,1.394,1.807,1.807,0,0,1-.134,1.474c-.025.056-.052.117-.081.184a11.822,11.822,0,0,1-1.024,1.914,6.263,6.263,0,0,1-2.638,2.45A4.516,4.516,0,0,1,56.137,62.015Z" transform="translate(-32.098 -32.009)"/></svg>