<svg xmlns="http://www.w3.org/2000/svg" width="21" height="23.425" viewBox="0 0 21 23.425"><defs><style>.a{fill:#252525;}</style></defs><path class="a" d="M3.706,16.928h6.5v1.83h-6.5Zm0-1.784h6.5v-1.83h-6.5Zm0-3.614H14.915V9.7H3.706ZM21,23.425H19.17a3.34,3.34,0,1,0-6.68,0H10.66a5.173,5.173,0,0,1,2.624-4.5,3.386,3.386,0,1,1,5.093,0A5.173,5.173,0,0,1,21,23.425Zm-5.17-5.17A1.556,1.556,0,1,0,14.275,16.7,1.557,1.557,0,0,0,15.83,18.255ZM2.745,21.595H9.073a6.98,6.98,0,0,0-.243,1.83H2.745A2.748,2.748,0,0,1,0,20.68V2.745A2.748,2.748,0,0,1,2.745,0h9.322l6.5,6.536v5.729a5.157,5.157,0,0,0-1.825-.7V7.829H13.492a2.748,2.748,0,0,1-2.745-2.745V1.83h-8a.916.916,0,0,0-.915.915V20.68A.916.916,0,0,0,2.745,21.595ZM13.492,6h1.966L12.577,3.105V5.083A.916.916,0,0,0,13.492,6Zm0,0"/></svg>