<svg xmlns="http://www.w3.org/2000/svg" width="20" height="20" viewBox="0 0 20 20"><defs><style>.a{fill:#252525;}</style></defs><g transform="translate(0 -0.001)"><g transform="translate(0 11.001)"><path class="a" d="M18.472,264h-.012a1.506,1.506,0,0,0-1.025.4l-3.611,3.333a1,1,0,0,1-.679.267H8.081a.667.667,0,0,1,0-1.333h3.5a1.333,1.333,0,1,0,0-2.667H6.147a4.326,4.326,0,0,0-2.3.659l-1.184.741V265H0v8H2.667v-.667H9.694a4.339,4.339,0,0,0,.659-.05l2.737-.421a4.306,4.306,0,0,0,2.405-1.219l4.062-4.063A1.5,1.5,0,0,0,20,265.508,1.52,1.52,0,0,0,18.472,264ZM2,272.33H.667v-6.667H2Zm17.085-6.223h0l-4.062,4.063a3.645,3.645,0,0,1-2.035,1.031l-2.737.421a3.68,3.68,0,0,1-.558.042H2.667v-5.482l1.537-.961a3.662,3.662,0,0,1,1.943-.557h5.439a.667.667,0,0,1,0,1.333h-3.5a1.333,1.333,0,1,0,0,2.667h5.064a1.662,1.662,0,0,0,1.131-.442l3.612-3.333a.863.863,0,0,1,.6-.224.845.845,0,0,1,.6,1.443Z" transform="translate(0 -263.997)"/></g><g transform="translate(5 0.001)"><g transform="translate(0 0)"><path class="a" d="M129.933,3.467a.333.333,0,0,0-.267-.133h-3.108L125.31.21a.333.333,0,0,0-.619,0l-1.25,3.124h-3.108a.333.333,0,0,0-.2.6L122.6,5.786l-1.249,3.433a.333.333,0,0,0,.521.374L124.988,7.1l2.79,2.48a.333.333,0,0,0,.543-.337l-.94-3.447,2.485-1.864A.333.333,0,0,0,129.933,3.467ZM126.8,5.4a.333.333,0,0,0-.122.354l.705,2.585-2.162-1.922a.333.333,0,0,0-.43-.011l-2.406,1.925.928-2.55A.333.333,0,0,0,123.2,5.4L121.333,4h2.333a.333.333,0,0,0,.31-.21L125,1.231l1.024,2.56a.333.333,0,0,0,.31.21h2.333Z" transform="translate(-120 -0.001)"/></g></g><g transform="translate(6.098 0.765)"><g transform="translate(0 0)"><rect class="a" width="0.667" height="1.886" transform="translate(0 0.471) rotate(-45)"/></g></g><g transform="translate(12.098 0.765)"><rect class="a" width="1.886" height="0.667" transform="translate(0 1.333) rotate(-45)"/></g><g transform="translate(4.138 6.208)"><g transform="translate(0 0)"><rect class="a" width="2" height="1" transform="translate(-0.138 -0.206)"/></g></g><g transform="translate(13.793 6.208)"><g transform="translate(0 0)"><rect class="a" width="2" height="1" transform="translate(0.207 -0.206)"/></g></g><g transform="translate(9.655 8.277)"><g transform="translate(0 0)"><rect class="a" height="2" transform="translate(0.345 -0.275)"/></g></g></g></svg>